<svg width="338" height="237" viewBox="0 0 338 237" fill="none" xmlns="http://www.w3.org/2000/svg">
<g clip-path="url(#clip0_2963_424726)">
<path d="M263.303 233.402C260.471 233.652 257.618 233.266 254.954 232.272C252.29 231.278 249.882 229.702 247.905 227.658C245.32 224.933 243.546 221.425 241.831 218.033C241.331 217.046 240.815 216.025 240.29 215.046C239.705 213.98 239.452 212.762 239.565 211.551C239.677 210.339 240.15 209.189 240.922 208.249C241.662 207.308 242.667 206.611 243.806 206.247C244.946 205.883 246.168 205.869 247.316 206.206L247.567 206.278L249.82 215.069C250.156 213.758 250.877 210.803 251.333 207.909L251.371 207.666L251.595 207.766C253.948 208.807 256.16 210.14 258.179 211.734C261.756 214.603 264.666 218.217 266.706 222.325C268.745 226.432 269.866 230.934 269.99 235.519L269.995 235.792L263.303 233.402Z" fill="#F2F2F2"/>
<path d="M336.744 236.379L227.415 236.5C227.291 236.5 227.172 236.45 227.085 236.363C226.998 236.275 226.949 236.157 226.949 236.033C226.949 235.909 226.998 235.791 227.085 235.703C227.172 235.616 227.291 235.566 227.415 235.566L336.744 235.445C336.868 235.445 336.986 235.495 337.074 235.582C337.162 235.67 337.211 235.789 337.211 235.912C337.211 236.036 337.162 236.155 337.074 236.243C336.986 236.33 336.868 236.379 336.744 236.379Z" fill="#CACACA"/>
<path d="M46.8312 40.9847H42.7463C42.3561 40.9847 41.982 41.1397 41.7061 41.4155C41.4303 41.6914 41.2753 42.0655 41.2753 42.4556C41.2753 42.8458 41.1204 43.2199 40.8445 43.4958C40.5686 43.7716 40.1945 43.9266 39.8044 43.9266H26.1855C25.7954 43.9266 25.4213 43.7716 25.1454 43.4958C24.8695 43.2199 24.7146 42.8458 24.7146 42.4556L24.4453 40.9645L24.4628 40.9847L24.4453 40.9645L21.9767 37.8173C21.8958 37.7125 21.7918 37.6279 21.6728 37.5701C21.5538 37.5123 21.423 37.4828 21.2907 37.484H16.6611C16.4299 37.4843 16.2083 37.5763 16.0449 37.7397C15.8815 37.9031 15.7895 38.1247 15.7893 38.3558L15.6937 40.9645H13.9434C13.201 40.9645 12.489 41.2594 11.9641 41.7844C11.4391 42.3093 11.1442 43.0213 11.1442 43.7638V61.9953C11.1442 62.3215 11.2084 62.6445 11.3333 62.9459C11.4581 63.2473 11.6411 63.5212 11.8718 63.7518C12.1024 63.9825 12.3763 64.1655 12.6777 64.2903C12.979 64.4152 13.3021 64.4794 13.6283 64.4794H46.8312C47.4898 64.4786 48.1211 64.2166 48.5867 63.7509C49.0522 63.2852 49.3141 62.6538 49.3147 61.9953V43.4681C49.3147 42.8095 49.053 42.1778 48.5873 41.7121C48.1216 41.2463 47.4899 40.9847 46.8312 40.9847V40.9847Z" fill="#F2F2F2"/>
<path d="M24.4466 40.8972H15.7893V38.2886C15.7895 38.0574 15.8815 37.8359 16.0449 37.6724C16.2084 37.509 16.4299 37.4171 16.6611 37.4168H21.2907C21.423 37.4156 21.5538 37.4451 21.6728 37.5029C21.7918 37.5607 21.8958 37.6453 21.9767 37.75L24.4466 40.8972Z" fill="#E6E6E6"/>
<path d="M28.8794 62.4733H14.4239C13.9663 62.4728 13.5276 62.2908 13.204 61.9672C12.8805 61.6437 12.6985 61.205 12.6979 60.7474V56.7941C12.6985 56.3365 12.8805 55.8978 13.204 55.5742C13.5276 55.2506 13.9663 55.0686 14.4239 55.0681H31.7739C32.2315 55.0686 32.6702 55.2506 32.9938 55.5742C33.3173 55.8978 33.4993 56.3365 33.4998 56.7941V57.8529C33.4985 59.0779 33.0112 60.2523 32.145 61.1185C31.2788 61.9847 30.1044 62.4719 28.8794 62.4733V62.4733Z" fill="white"/>
<path d="M18.585 58.0501H15.0171C14.902 58.0504 14.788 58.0279 14.6816 57.984C14.5752 57.9402 14.4785 57.8757 14.397 57.7944C14.3156 57.7132 14.251 57.6166 14.2069 57.5103C14.1628 57.404 14.1401 57.29 14.1401 57.175C14.1401 57.0599 14.1628 56.9459 14.2069 56.8396C14.251 56.7333 14.3156 56.6368 14.397 56.5555C14.4785 56.4742 14.5752 56.4098 14.6816 56.3659C14.788 56.322 14.902 56.2996 15.0171 56.2998H18.585C18.7001 56.2996 18.8141 56.322 18.9205 56.3659C19.0269 56.4098 19.1236 56.4742 19.2051 56.5555C19.2865 56.6368 19.3512 56.7333 19.3953 56.8396C19.4394 56.9459 19.4621 57.0599 19.4621 57.175C19.4621 57.29 19.4394 57.404 19.3953 57.5103C19.3512 57.6166 19.2865 57.7132 19.2051 57.7944C19.1236 57.8757 19.0269 57.9402 18.9205 57.984C18.8141 58.0279 18.7001 58.0504 18.585 58.0501V58.0501Z" fill="#F2F2F2"/>
<path d="M30.7027 60.8103H15.0171C14.902 60.8105 14.788 60.7881 14.6816 60.7442C14.5752 60.7003 14.4785 60.6359 14.397 60.5546C14.3156 60.4733 14.251 60.3767 14.2069 60.2704C14.1628 60.1641 14.1401 60.0502 14.1401 59.9351C14.1401 59.82 14.1628 59.7061 14.2069 59.5998C14.251 59.4935 14.3156 59.3969 14.397 59.3156C14.4785 59.2343 14.5752 59.1699 14.6816 59.126C14.788 59.0821 14.902 59.0597 15.0171 59.0599H30.7027C30.8178 59.0597 30.9318 59.0821 31.0381 59.126C31.1445 59.1699 31.2412 59.2343 31.3227 59.3156C31.4042 59.3969 31.4688 59.4935 31.5129 59.5998C31.557 59.7061 31.5797 59.82 31.5797 59.9351C31.5797 60.0502 31.557 60.1641 31.5129 60.2704C31.4688 60.3767 31.4042 60.4733 31.3227 60.5546C31.2412 60.6359 31.1445 60.7003 31.0381 60.7442C30.9318 60.7881 30.8178 60.8105 30.7027 60.8103V60.8103Z" fill="#F2F2F2"/>
<path d="M46.8312 98.2478H42.7463C42.3561 98.2478 41.982 98.4027 41.7061 98.6786C41.4303 98.9544 41.2753 99.3286 41.2753 99.7187C41.2753 100.109 41.1204 100.483 40.8445 100.759C40.5686 101.035 40.1945 101.19 39.8044 101.19H26.1855C25.7954 101.19 25.4213 101.035 25.1454 100.759C24.8695 100.483 24.7146 100.109 24.7146 99.7187L24.4453 98.2276L24.4628 98.2478L24.4453 98.2276L21.9767 95.0803C21.8958 94.9756 21.7918 94.891 21.6728 94.8332C21.5538 94.7754 21.423 94.7459 21.2907 94.7471H16.6611C16.4299 94.7474 16.2083 94.8393 16.0449 95.0028C15.8815 95.1662 15.7895 95.3878 15.7893 95.6189L15.6937 98.2276H13.9434C13.201 98.2276 12.489 98.5225 11.9641 99.0474C11.4391 99.5724 11.1442 100.284 11.1442 101.027V119.258C11.1442 119.917 11.4059 120.549 11.8718 121.015C12.3376 121.481 12.9695 121.742 13.6283 121.742H46.8312C47.4898 121.742 48.1211 121.48 48.5867 121.014C49.0522 120.548 49.3141 119.917 49.3147 119.258V100.731C49.3147 100.073 49.053 99.4409 48.5873 98.9751C48.1216 98.5094 47.4899 98.2478 46.8312 98.2478V98.2478Z" fill="#F2F2F2"/>
<path d="M24.4466 98.1603H15.7893V95.5516C15.7895 95.3205 15.8815 95.0989 16.0449 94.9355C16.2084 94.7721 16.4299 94.6801 16.6611 94.6798H21.2907C21.423 94.6786 21.5538 94.7081 21.6728 94.7659C21.7918 94.8237 21.8958 94.9083 21.9767 95.0131L24.4466 98.1603Z" fill="#E6E6E6"/>
<path d="M28.8794 119.736H14.4239C13.9663 119.736 13.5276 119.554 13.204 119.23C12.8805 118.907 12.6985 118.468 12.6979 118.01V114.057C12.6985 113.6 12.8805 113.161 13.204 112.837C13.5276 112.514 13.9663 112.332 14.4239 112.331H31.7739C32.2315 112.332 32.6702 112.514 32.9938 112.837C33.3173 113.161 33.4993 113.6 33.4998 114.057V115.116C33.4985 116.341 33.0112 117.515 32.145 118.382C31.2788 119.248 30.1044 119.735 28.8794 119.736V119.736Z" fill="white"/>
<path d="M18.585 115.313H15.0171C14.902 115.313 14.788 115.291 14.6816 115.247C14.5752 115.203 14.4785 115.139 14.397 115.058C14.3156 114.976 14.251 114.88 14.2069 114.773C14.1628 114.667 14.1401 114.553 14.1401 114.438C14.1401 114.323 14.1628 114.209 14.2069 114.103C14.251 113.996 14.3156 113.9 14.397 113.819C14.4785 113.737 14.5752 113.673 14.6816 113.629C14.788 113.585 14.902 113.563 15.0171 113.563H18.585C18.7001 113.563 18.8141 113.585 18.9205 113.629C19.0269 113.673 19.1236 113.737 19.2051 113.819C19.2865 113.9 19.3512 113.996 19.3953 114.103C19.4394 114.209 19.4621 114.323 19.4621 114.438C19.4621 114.553 19.4394 114.667 19.3953 114.773C19.3512 114.88 19.2865 114.976 19.2051 115.058C19.1236 115.139 19.0269 115.203 18.9205 115.247C18.8141 115.291 18.7001 115.313 18.585 115.313V115.313Z" fill="#F2F2F2"/>
<path d="M30.7027 118.073H15.0171C14.902 118.074 14.788 118.051 14.6816 118.007C14.5752 117.963 14.4785 117.899 14.397 117.818C14.3156 117.736 14.251 117.64 14.2069 117.534C14.1628 117.427 14.1401 117.313 14.1401 117.198C14.1401 117.083 14.1628 116.969 14.2069 116.863C14.251 116.757 14.3156 116.66 14.397 116.579C14.4785 116.497 14.5752 116.433 14.6816 116.389C14.788 116.345 14.902 116.323 15.0171 116.323H30.7027C30.8178 116.323 30.9318 116.345 31.0381 116.389C31.1445 116.433 31.2412 116.497 31.3227 116.579C31.4042 116.66 31.4688 116.757 31.5129 116.863C31.557 116.969 31.5797 117.083 31.5797 117.198C31.5797 117.313 31.557 117.427 31.5129 117.534C31.4688 117.64 31.4042 117.736 31.3227 117.818C31.2412 117.899 31.1445 117.963 31.0381 118.007C30.9318 118.051 30.8178 118.074 30.7027 118.073V118.073Z" fill="#F2F2F2"/>
<path d="M46.8312 155.511H42.7463C42.3561 155.511 41.982 155.666 41.7061 155.942C41.4303 156.218 41.2753 156.592 41.2753 156.982C41.2753 157.372 41.1204 157.746 40.8445 158.022C40.5686 158.298 40.1945 158.453 39.8044 158.453H26.1855C25.7954 158.453 25.4213 158.298 25.1454 158.022C24.8695 157.746 24.7146 157.372 24.7146 156.982L24.4453 155.491L24.4628 155.511L24.4453 155.491L21.9767 152.344C21.8958 152.239 21.7918 152.154 21.6728 152.096C21.5538 152.039 21.423 152.009 21.2907 152.01H16.6611C16.4299 152.011 16.2083 152.102 16.0449 152.266C15.8815 152.429 15.7895 152.651 15.7893 152.882L15.6937 155.491H13.9434C13.5758 155.491 13.2118 155.563 12.8722 155.704C12.5326 155.844 12.224 156.051 11.9641 156.311C11.7041 156.571 11.4979 156.879 11.3573 157.219C11.2166 157.558 11.1442 157.922 11.1442 158.29V176.522C11.1442 177.18 11.4059 177.812 11.8718 178.278C12.3376 178.744 12.9695 179.006 13.6283 179.006H46.8312C47.4898 179.005 48.1211 178.743 48.5867 178.277C49.0522 177.811 49.3141 177.18 49.3147 176.522V157.994C49.3147 157.336 49.053 156.704 48.5873 156.238C48.1216 155.773 47.4899 155.511 46.8312 155.511V155.511Z" fill="#F2F2F2"/>
<path d="M24.4466 155.423H15.7893V152.815C15.7895 152.584 15.8815 152.362 16.0449 152.199C16.2084 152.035 16.4299 151.943 16.6611 151.943H21.2907C21.423 151.942 21.5538 151.971 21.6728 152.029C21.7918 152.087 21.8958 152.171 21.9767 152.276L24.4466 155.423Z" fill="#E6E6E6"/>
<path d="M28.8794 176.999H14.4239C13.9663 176.999 13.5276 176.817 13.204 176.493C12.8805 176.17 12.6985 175.731 12.6979 175.274V171.32C12.6985 170.863 12.8805 170.424 13.204 170.1C13.5276 169.777 13.9663 169.595 14.4239 169.594H31.7739C32.2315 169.595 32.6702 169.777 32.9938 170.1C33.3173 170.424 33.4993 170.863 33.4998 171.32V172.379C33.4985 173.604 33.0112 174.778 32.145 175.645C31.2788 176.511 30.1044 176.998 28.8794 176.999Z" fill="white"/>
<path d="M18.585 172.576H15.0171C14.785 172.576 14.5624 172.484 14.3982 172.32C14.2341 172.156 14.1419 171.933 14.1419 171.701C14.1419 171.469 14.2341 171.246 14.3982 171.082C14.5624 170.918 14.785 170.826 15.0171 170.826H18.585C18.7001 170.826 18.8141 170.848 18.9205 170.892C19.0269 170.936 19.1236 171 19.2051 171.082C19.2865 171.163 19.3512 171.259 19.3953 171.366C19.4394 171.472 19.4621 171.586 19.4621 171.701C19.4621 171.816 19.4394 171.93 19.3953 172.036C19.3512 172.143 19.2865 172.239 19.2051 172.321C19.1236 172.402 19.0269 172.466 18.9205 172.51C18.8141 172.554 18.7001 172.577 18.585 172.576Z" fill="#F2F2F2"/>
<path d="M30.7027 175.336H15.0171C14.902 175.337 14.788 175.314 14.6816 175.27C14.5752 175.226 14.4785 175.162 14.397 175.081C14.3156 174.999 14.251 174.903 14.2069 174.797C14.1628 174.69 14.1401 174.576 14.1401 174.461C14.1401 174.346 14.1628 174.232 14.2069 174.126C14.251 174.02 14.3156 173.923 14.397 173.842C14.4785 173.76 14.5752 173.696 14.6816 173.652C14.788 173.608 14.902 173.586 15.0171 173.586H30.7027C30.8178 173.586 30.9318 173.608 31.0381 173.652C31.1445 173.696 31.2412 173.76 31.3227 173.842C31.4042 173.923 31.4688 174.02 31.5129 174.126C31.557 174.232 31.5797 174.346 31.5797 174.461C31.5797 174.576 31.557 174.69 31.5129 174.797C31.4688 174.903 31.4042 174.999 31.3227 175.081C31.2412 175.162 31.1445 175.226 31.0381 175.27C30.9318 175.314 30.8178 175.337 30.7027 175.336V175.336Z" fill="#F2F2F2"/>
<path d="M120.763 50.752C120.123 50.7527 119.509 51.0073 119.057 51.4601C118.604 51.9128 118.349 52.5266 118.348 53.1668V95.483C118.349 96.1232 118.604 96.737 119.057 97.1897C119.509 97.6424 120.123 97.8971 120.763 97.8978H180.618C181.258 97.8971 181.872 97.6424 182.325 97.1897C182.778 96.737 183.032 96.1232 183.033 95.483V53.1668C183.032 52.5266 182.778 51.9128 182.325 51.4601C181.872 51.0073 181.258 50.7527 180.618 50.752H120.763Z" fill="#E6E6E6"/>
<path d="M159.092 95.8385H122.455C121.765 95.8377 121.105 95.5636 120.618 95.0764C120.13 94.5891 119.856 93.9285 119.856 93.2395V54.859C119.856 54.17 120.13 53.5093 120.618 53.0221C121.105 52.5349 121.765 52.2608 122.455 52.26H178.927C179.616 52.2608 180.277 52.5348 180.764 53.0221C181.251 53.5093 181.525 54.17 181.526 54.859V73.4041C181.52 79.352 179.154 85.0543 174.948 89.2602C170.742 93.466 165.04 95.8317 159.092 95.8385Z" fill="white"/>
<path d="M144.74 62.8815H136.034C135.925 62.8817 135.816 62.8604 135.715 62.8187C135.614 62.777 135.522 62.7158 135.445 62.6386C135.368 62.5614 135.306 62.4696 135.264 62.3686C135.222 62.2676 135.201 62.1594 135.201 62.05C135.201 61.9407 135.222 61.8325 135.264 61.7315C135.306 61.6305 135.368 61.5387 135.445 61.4615C135.522 61.3843 135.614 61.3231 135.715 61.2814C135.816 61.2397 135.925 61.2184 136.034 61.2186H144.74C144.961 61.2191 145.172 61.3069 145.327 61.4628C145.483 61.6187 145.57 61.8298 145.57 62.05C145.57 62.2702 145.483 62.4814 145.327 62.6373C145.172 62.7932 144.961 62.881 144.74 62.8815Z" fill="#454545"/>
<path d="M164.257 66.282H136.034C135.925 66.2822 135.816 66.2609 135.715 66.2192C135.614 66.1775 135.522 66.1163 135.445 66.0391C135.368 65.9619 135.306 65.8701 135.264 65.7691C135.222 65.6682 135.201 65.5599 135.201 65.4506C135.201 65.3412 135.222 65.233 135.264 65.132C135.306 65.031 135.368 64.9393 135.445 64.862C135.522 64.7848 135.614 64.7236 135.715 64.6819C135.816 64.6402 135.925 64.6189 136.034 64.6191H164.257C164.477 64.6196 164.688 64.7074 164.844 64.8633C164.999 65.0192 165.087 65.2304 165.087 65.4506C165.087 65.6707 164.999 65.8819 164.844 66.0378C164.688 66.1937 164.477 66.2815 164.257 66.282V66.282Z" fill="#E6E6E6"/>
<path d="M164.257 70.1853H136.034C135.925 70.1855 135.816 70.1642 135.715 70.1225C135.614 70.0808 135.522 70.0196 135.445 69.9424C135.368 69.8652 135.306 69.7735 135.264 69.6725C135.222 69.5715 135.201 69.4632 135.201 69.3539C135.201 69.2445 135.222 69.1363 135.264 69.0353C135.306 68.9343 135.368 68.8426 135.445 68.7653C135.522 68.6881 135.614 68.6269 135.715 68.5852C135.816 68.5436 135.925 68.5222 136.034 68.5225H164.257C164.477 68.5229 164.688 68.6107 164.844 68.7666C164.999 68.9225 165.087 69.1337 165.087 69.3539C165.087 69.5741 164.999 69.7853 164.844 69.9411C164.688 70.097 164.477 70.1848 164.257 70.1853V70.1853Z" fill="#E6E6E6"/>
<path d="M164.257 74.0886H136.034C135.814 74.0886 135.602 74.001 135.446 73.8451C135.29 73.6892 135.203 73.4777 135.203 73.2572C135.203 73.0367 135.29 72.8252 135.446 72.6693C135.602 72.5134 135.814 72.4258 136.034 72.4258H164.257C164.477 72.4258 164.689 72.5134 164.845 72.6693C165.001 72.8252 165.088 73.0367 165.088 73.2572C165.088 73.4777 165.001 73.6892 164.845 73.8451C164.689 74.001 164.477 74.0886 164.257 74.0886V74.0886Z" fill="#E6E6E6"/>
<path d="M164.257 77.9919H136.034C135.925 77.9922 135.816 77.9708 135.715 77.9292C135.614 77.8875 135.522 77.8263 135.445 77.7491C135.368 77.6718 135.306 77.5801 135.264 77.4791C135.222 77.3781 135.201 77.2699 135.201 77.1605C135.201 77.0512 135.222 76.9429 135.264 76.8419C135.306 76.7409 135.368 76.6492 135.445 76.572C135.522 76.4947 135.614 76.4335 135.715 76.3919C135.816 76.3502 135.925 76.3289 136.034 76.3291H164.257C164.477 76.3296 164.688 76.4174 164.844 76.5733C164.999 76.7291 165.087 76.9403 165.087 77.1605C165.087 77.3807 164.999 77.5919 164.844 77.7478C164.688 77.9036 164.477 77.9914 164.257 77.9919Z" fill="#E6E6E6"/>
<path d="M186.886 80.2963H175.071C174.512 80.2963 173.959 80.4063 173.443 80.6201C172.927 80.8339 172.458 81.1473 172.063 81.5424C171.668 81.9374 171.354 82.4064 171.14 82.9226C170.927 83.4388 170.817 83.992 170.817 84.5507C170.817 85.1094 170.707 85.6626 170.493 86.1788C170.279 86.6949 169.966 87.164 169.571 87.559C169.175 87.9541 168.706 88.2674 168.19 88.4813C167.674 88.6951 167.121 88.8051 166.562 88.8051H127.172C126.044 88.8051 124.962 88.3569 124.164 87.559C123.366 86.7612 122.918 85.679 122.918 84.5507L122.139 80.2379L122.19 80.2963L122.139 80.2379L114.999 71.1352C114.765 70.8322 114.464 70.5876 114.12 70.4203C113.776 70.2531 113.398 70.1679 113.015 70.1714H99.6248C98.9563 70.1722 98.3155 70.4381 97.8428 70.9108C97.3701 71.3835 97.1041 72.0244 97.1033 72.6929L96.8269 80.2379H91.7647C89.6174 80.2379 87.5581 81.0909 86.0397 82.6092C84.5214 84.1276 83.6684 86.1869 83.6684 88.3342V141.065C83.6684 142.971 84.4253 144.798 85.7727 146.146C87.1202 147.493 88.9476 148.25 90.8532 148.25H186.886C188.791 148.248 190.617 147.49 191.963 146.143C193.31 144.796 194.067 142.97 194.069 141.065V87.4791C194.069 85.5741 193.312 83.7471 191.965 82.4001C190.618 81.053 188.791 80.2963 186.886 80.2963V80.2963Z" fill="#E6E6E6"/>
<path d="M122.143 80.0432H97.1033V72.4982C97.1041 71.8297 97.3701 71.1888 97.8428 70.7161C98.3155 70.2434 98.9563 69.9775 99.6248 69.9767H113.015C113.398 69.9732 113.776 70.0584 114.12 70.2256C114.464 70.3929 114.765 70.6375 114.999 70.9405L122.143 80.0432Z" fill="#CCCCCC"/>
<path d="M134.964 142.448H93.1542C91.8307 142.446 90.5619 141.92 89.626 140.984C88.6902 140.048 88.1638 138.779 88.1623 137.456V126.021C88.1638 124.698 88.6902 123.429 89.626 122.493C90.5619 121.557 91.8307 121.031 93.1542 121.03H143.336C144.659 121.031 145.928 121.557 146.864 122.493C147.8 123.429 148.326 124.698 148.328 126.021V129.084C148.324 132.627 146.914 136.024 144.409 138.529C141.904 141.034 138.507 142.444 134.964 142.448Z" fill="white"/>
<path d="M105.19 129.654H94.8699C94.1986 129.654 93.5548 129.388 93.0801 128.913C92.6054 128.438 92.3387 127.795 92.3387 127.123C92.3387 126.452 92.6054 125.808 93.0801 125.333C93.5548 124.859 94.1986 124.592 94.8699 124.592H105.19C105.522 124.592 105.852 124.657 106.159 124.784C106.467 124.911 106.746 125.097 106.981 125.332C107.217 125.567 107.404 125.847 107.531 126.154C107.658 126.461 107.724 126.791 107.724 127.123C107.724 127.456 107.658 127.785 107.531 128.093C107.404 128.4 107.217 128.679 106.981 128.914C106.746 129.149 106.467 129.336 106.159 129.463C105.852 129.59 105.522 129.655 105.19 129.654V129.654Z" fill="#454545"/>
<path d="M140.237 137.638H94.8699C94.1986 137.638 93.5548 137.371 93.0801 136.896C92.6054 136.422 92.3387 135.778 92.3387 135.106C92.3387 134.435 92.6054 133.791 93.0801 133.317C93.5548 132.842 94.1986 132.575 94.8699 132.575H140.237C140.57 132.575 140.899 132.64 141.207 132.767C141.514 132.894 141.794 133.08 142.029 133.315C142.265 133.551 142.451 133.83 142.579 134.137C142.706 134.444 142.772 134.774 142.772 135.106C142.772 135.439 142.706 135.769 142.579 136.076C142.451 136.383 142.265 136.662 142.029 136.897C141.794 137.132 141.514 137.319 141.207 137.446C140.899 137.573 140.57 137.638 140.237 137.638V137.638Z" fill="#454545"/>
<path d="M224.374 14.0252H1.48225C1.29694 14.0212 1.12055 13.9448 0.990891 13.8124C0.86123 13.6799 0.78862 13.5019 0.78862 13.3166C0.78862 13.1312 0.86123 12.9533 0.990891 12.8208C1.12055 12.6884 1.29694 12.612 1.48225 12.608H224.374C224.559 12.612 224.736 12.6884 224.865 12.8208C224.995 12.9533 225.068 13.1312 225.068 13.3166C225.068 13.5019 224.995 13.6799 224.865 13.8124C224.736 13.9448 224.559 14.0212 224.374 14.0252V14.0252Z" fill="#CACACA"/>
<path d="M13.6112 8.99019C15.9046 8.99019 17.7637 7.0896 17.7637 4.7451C17.7637 2.40059 15.9046 0.5 13.6112 0.5C11.3178 0.5 9.4586 2.40059 9.4586 4.7451C9.4586 7.0896 11.3178 8.99019 13.6112 8.99019Z" fill="#3F3D56"/>
<path d="M27.9564 8.99019C30.2498 8.99019 32.1089 7.0896 32.1089 4.7451C32.1089 2.40059 30.2498 0.5 27.9564 0.5C25.663 0.5 23.8038 2.40059 23.8038 4.7451C23.8038 7.0896 25.663 8.99019 27.9564 8.99019Z" fill="#3F3D56"/>
<path d="M42.3015 8.99019C44.5949 8.99019 46.4541 7.0896 46.4541 4.7451C46.4541 2.40059 44.5949 0.5 42.3015 0.5C40.0081 0.5 38.149 2.40059 38.149 4.7451C38.149 7.0896 40.0081 8.99019 42.3015 8.99019Z" fill="#3F3D56"/>
<path d="M215.737 1.55225H205.547C205.345 1.55627 205.153 1.63933 205.011 1.78359C204.87 1.92785 204.791 2.12181 204.791 2.32382C204.791 2.52584 204.87 2.71979 205.011 2.86406C205.153 3.00832 205.345 3.09137 205.547 3.09539H215.737C215.939 3.09137 216.131 3.00832 216.273 2.86406C216.414 2.71979 216.493 2.52584 216.493 2.32382C216.493 2.12181 216.414 1.92785 216.273 1.78359C216.131 1.63933 215.939 1.55627 215.737 1.55225Z" fill="#3F3D56"/>
<path d="M215.737 4.44849H205.547C205.345 4.45251 205.153 4.53556 205.011 4.67982C204.87 4.82408 204.791 5.01804 204.791 5.22006C204.791 5.42207 204.87 5.61603 205.011 5.76029C205.153 5.90455 205.345 5.98761 205.547 5.99163H215.737C215.939 5.98761 216.131 5.90455 216.273 5.76029C216.414 5.61603 216.493 5.42207 216.493 5.22006C216.493 5.01804 216.414 4.82408 216.273 4.67982C216.131 4.53556 215.939 4.45251 215.737 4.44849V4.44849Z" fill="#3F3D56"/>
<path d="M215.737 7.34082H205.547C205.345 7.34484 205.153 7.4279 205.011 7.57216C204.87 7.71642 204.791 7.91038 204.791 8.11239C204.791 8.3144 204.87 8.50836 205.011 8.65262C205.153 8.79688 205.345 8.87994 205.547 8.88397H215.737C215.939 8.87994 216.131 8.79688 216.273 8.65262C216.414 8.50836 216.493 8.3144 216.493 8.11239C216.493 7.91038 216.414 7.71642 216.273 7.57216C216.131 7.4279 215.939 7.34484 215.737 7.34082V7.34082Z" fill="#3F3D56"/>
<path d="M310.835 231.37H307.155L305.405 217.177L310.835 217.178L310.835 231.37Z" fill="#9E616A"/>
<path d="M310.964 235.208L299.649 235.208V235.065C299.649 233.897 300.113 232.777 300.939 231.951C301.765 231.125 302.885 230.661 304.053 230.661H304.054L306.12 229.093L309.977 230.661L310.964 230.661L310.964 235.208Z" fill="#2F2E41"/>
<path d="M299.472 218.615L295.949 219.677L290.177 206.594L295.376 205.027L299.472 218.615Z" fill="#9E616A"/>
<path d="M300.704 222.253L289.871 225.519L289.83 225.382C289.493 224.263 289.613 223.057 290.166 222.028C290.718 220.999 291.657 220.231 292.775 219.894L292.775 219.894L294.301 217.796L298.446 218.184L299.392 217.899L300.704 222.253Z" fill="#2F2E41"/>
<path d="M294.42 141.449C294.42 141.449 290.483 147.458 289.091 151.546C285.678 161.564 284.045 159.161 280.115 183.52C285.448 201.513 290.729 213.374 290.729 213.374C290.729 213.374 298.665 211.142 298.665 209.654C298.665 208.166 293.601 190.02 292.857 187.912C292.113 185.804 290.873 185.06 291.989 183.324C293.105 181.588 302.273 166.411 302.273 166.411C302.273 166.411 302.025 192.28 302.273 192.776C302.521 193.272 303.713 223.061 303.713 223.061C303.713 223.061 311.875 227.239 312.37 222.787C312.494 221.671 312.65 192.15 312.65 191.654C312.65 191.158 320.206 144.939 316.61 143.079C313.014 141.219 294.42 141.449 294.42 141.449Z" fill="#2F2E41"/>
<path d="M277.926 145.731C277.981 145.23 278.146 144.747 278.408 144.317C278.671 143.886 279.024 143.519 279.444 143.24C279.864 142.96 280.34 142.777 280.838 142.702C281.337 142.626 281.846 142.661 282.329 142.804L289.46 132.838L291.743 138.782L284.622 147.335C284.329 148.131 283.753 148.792 283.005 149.193C282.256 149.593 281.387 149.705 280.562 149.507C279.736 149.31 279.012 148.816 278.526 148.12C278.04 147.424 277.827 146.574 277.926 145.731L277.926 145.731Z" fill="#9E616A"/>
<path d="M287.759 144.187L283.018 140.592L292.971 125.266L300.965 94.4686L307.295 100.362C307.837 100.529 308.339 100.806 308.769 101.175C309.2 101.545 309.55 101.999 309.797 102.509C310.306 103.548 311.388 101.808 310.983 102.892L302.08 126.932L302.067 126.949L287.759 144.187Z" fill="#3F3D56"/>
<path d="M304.517 93.2068L297.774 95.827L295.002 99.6552L288.284 134.113L288.551 135.276L287.882 136.172L287.62 137.52L288.271 138.641L287.127 140.046C287.127 140.046 287.43 141.166 288.551 150.702C289.244 156.586 300.443 152.962 300.443 152.962L305.527 100.704L304.517 93.2068Z" fill="#3F3D56"/>
<path d="M318.909 97.659L313.092 92.4551L304.49 92.9736L299.537 98.996L289.932 148.741L310.126 150.424L318.909 97.659Z" fill="#E6E6E6"/>
<path d="M313.81 93.2922L319.101 97.3544L321.131 100.316C322.857 101.302 324.19 102.853 324.908 104.706C325.625 106.56 325.683 108.604 325.071 110.495L318.645 133.15L318.495 133.613C318.342 134.061 319.074 137.614 318.71 141.44C318.615 142.436 319.771 143.548 319.684 144.531C319.616 145.301 318.303 145.956 318.245 146.663C318.192 147.301 318.884 147.908 318.843 148.458C318.739 149.53 318.446 150.575 317.98 151.546C312.505 153.811 301.933 152.168 301.933 152.168L311.512 100.544L313.81 93.2922Z" fill="#3F3D56"/>
<path d="M307.896 90.4528C313.155 90.4528 317.419 86.1892 317.419 80.9298C317.419 75.6704 313.155 71.4069 307.896 71.4069C302.636 71.4069 298.373 75.6704 298.373 80.9298C298.373 86.1892 302.636 90.4528 307.896 90.4528Z" fill="#9E616A"/>
<path d="M320.243 81.337C319.69 84.4671 317.455 87.5636 314.333 88.1582L314.274 88.0797C314.448 86.7228 314.524 85.3553 314.502 83.9875C314.497 83.6175 314.363 83.2608 314.122 82.9791C313.882 82.6975 313.551 82.5085 313.187 82.445C312.822 82.3815 312.447 82.4473 312.126 82.6311C311.804 82.815 311.558 83.1052 311.428 83.4518C311.484 82.2598 310.979 81.0425 310.654 79.8926C310.328 78.7454 310.107 77.6572 308.973 77.2813C308.028 76.97 306.999 77.186 306.028 77.4075C304.688 77.7105 304.006 77.6403 303.886 77.301C303.39 77.4825 302.894 77.6638 302.397 77.8447C302.21 77.9129 302.005 77.918 301.814 77.8594C301.623 77.8008 301.457 77.6816 301.34 77.5199L301.336 77.5141C300.469 77.7385 299.603 77.961 298.736 78.1817C298.572 77.6266 298.438 77.0629 298.335 76.4932C299.077 75.8871 299.609 75.0613 299.852 74.1344C299.333 74.4333 298.77 74.6491 298.184 74.7739C298.163 74.1183 298.294 73.4668 298.565 72.8696C298.837 72.2725 299.241 71.7456 299.749 71.3296C301.799 69.6832 303.855 68.6735 306.48 68.8053C309.655 68.9652 310.606 72.3814 313.492 71.0492C317.138 69.3663 320.796 78.2069 320.243 81.337Z" fill="#2F2E41"/>
<path d="M266.858 87.1426C266.457 86.8205 265.945 86.6705 265.434 86.7253C264.923 86.7802 264.455 87.0355 264.132 87.4353L242.813 113.881C242.49 114.282 242.34 114.794 242.395 115.305C242.45 115.816 242.705 116.284 243.105 116.607L280.512 146.763C280.913 147.085 281.425 147.235 281.936 147.18C282.447 147.125 282.915 146.87 283.238 146.47L304.557 120.024C304.879 119.623 305.03 119.111 304.975 118.6C304.92 118.089 304.665 117.621 304.265 117.298L266.858 87.1426Z" fill="#CCCCCC"/>
<path d="M268.097 134.63L245.2 116.172C244.769 115.825 244.495 115.32 244.436 114.77C244.377 114.22 244.538 113.67 244.885 113.239L264.221 89.2521C264.569 88.8219 265.073 88.5471 265.623 88.488C266.173 88.429 266.724 88.5905 267.155 88.9372L302.448 117.389C302.879 117.736 303.153 118.24 303.212 118.79C303.271 119.34 303.11 119.891 302.763 120.322L293.42 131.912C290.419 135.626 286.068 137.998 281.32 138.508C276.573 139.017 271.817 137.623 268.097 134.63Z" fill="white"/>
<path d="M275.731 106.803L270.29 102.417C270.222 102.362 270.165 102.294 270.123 102.217C270.081 102.14 270.054 102.055 270.045 101.968C270.035 101.881 270.043 101.793 270.068 101.708C270.092 101.624 270.133 101.546 270.189 101.477C270.244 101.409 270.312 101.352 270.389 101.31C270.466 101.268 270.55 101.242 270.638 101.232C270.725 101.223 270.813 101.231 270.897 101.256C270.981 101.281 271.06 101.322 271.128 101.377L276.569 105.764C276.707 105.875 276.795 106.036 276.814 106.212C276.832 106.388 276.781 106.564 276.67 106.702C276.558 106.84 276.397 106.928 276.221 106.947C276.046 106.966 275.869 106.914 275.731 106.803Z" fill="#454545"/>
<path d="M286.216 118.761L268.577 104.542C268.509 104.487 268.452 104.419 268.41 104.342C268.368 104.265 268.341 104.181 268.332 104.094C268.323 104.006 268.331 103.918 268.355 103.834C268.38 103.75 268.421 103.671 268.476 103.603C268.531 103.535 268.599 103.478 268.676 103.436C268.753 103.394 268.837 103.368 268.925 103.358C269.012 103.349 269.1 103.357 269.184 103.382C269.268 103.407 269.347 103.448 269.415 103.503L287.053 117.722C287.191 117.833 287.279 117.994 287.298 118.17C287.316 118.346 287.265 118.522 287.154 118.66C287.043 118.798 286.881 118.886 286.706 118.905C286.53 118.923 286.353 118.872 286.216 118.761V118.761Z" fill="#E6E6E6"/>
<path d="M284.249 121.2L266.611 106.981C266.542 106.926 266.486 106.858 266.443 106.781C266.401 106.705 266.375 106.62 266.366 106.533C266.356 106.446 266.364 106.357 266.389 106.273C266.413 106.189 266.454 106.111 266.509 106.042C266.565 105.974 266.632 105.917 266.709 105.875C266.786 105.833 266.871 105.807 266.958 105.798C267.045 105.788 267.133 105.796 267.218 105.821C267.302 105.846 267.38 105.887 267.448 105.942L285.087 120.161C285.224 120.272 285.312 120.433 285.331 120.609C285.35 120.785 285.298 120.961 285.187 121.099C285.076 121.237 284.915 121.325 284.739 121.344C284.563 121.363 284.387 121.311 284.249 121.2V121.2Z" fill="#E6E6E6"/>
<path d="M282.282 123.64L264.644 109.421C264.576 109.366 264.519 109.298 264.477 109.221C264.434 109.144 264.408 109.059 264.398 108.972C264.389 108.885 264.397 108.797 264.421 108.713C264.446 108.628 264.487 108.55 264.542 108.481C264.597 108.413 264.665 108.356 264.742 108.314C264.819 108.272 264.904 108.246 264.991 108.237C265.079 108.227 265.167 108.235 265.251 108.26C265.335 108.285 265.414 108.326 265.482 108.382L283.12 122.6C283.258 122.712 283.345 122.873 283.364 123.049C283.383 123.224 283.331 123.4 283.22 123.538C283.109 123.676 282.948 123.764 282.772 123.783C282.596 123.802 282.42 123.75 282.282 123.64H282.282Z" fill="#E6E6E6"/>
<path d="M280.316 126.079L262.678 111.86C262.609 111.805 262.552 111.737 262.51 111.66C262.468 111.583 262.442 111.499 262.432 111.412C262.423 111.325 262.431 111.236 262.456 111.152C262.48 111.068 262.521 110.99 262.576 110.921C262.631 110.853 262.699 110.796 262.776 110.754C262.853 110.712 262.938 110.686 263.025 110.677C263.112 110.667 263.2 110.675 263.285 110.7C263.369 110.725 263.447 110.766 263.515 110.821L281.154 125.04C281.291 125.151 281.379 125.312 281.397 125.488C281.416 125.664 281.364 125.84 281.253 125.977C281.142 126.115 280.981 126.203 280.806 126.222C280.63 126.241 280.454 126.19 280.316 126.079V126.079Z" fill="#E6E6E6"/>
<path d="M276.475 125.609C276.799 125.222 277.203 124.912 277.66 124.699C278.117 124.486 278.615 124.375 279.119 124.375C279.623 124.376 280.121 124.486 280.578 124.7C281.035 124.913 281.439 125.224 281.763 125.611L293.22 121.263L291.828 127.477L281.162 130.653C280.476 131.154 279.631 131.385 278.786 131.304C277.941 131.223 277.155 130.835 276.578 130.213C276 129.591 275.67 128.779 275.651 127.93C275.633 127.082 275.926 126.256 276.475 125.609V125.609Z" fill="#9E616A"/>
<path d="M285.518 130.05L283.562 124.431L300.337 117.185L321.183 101.698L323.814 104.946C324.171 105.387 324.434 105.895 324.588 106.441C324.741 106.986 324.782 107.558 324.708 108.12C324.634 108.682 324.445 109.223 324.155 109.709C323.865 110.196 323.478 110.619 323.019 110.951L306.998 123.617L306.978 123.624L302.006 125.113L300.892 125.178L299.704 125.802L298.649 125.459L297.187 126.556L295.509 127.059L285.518 130.05Z" fill="#3F3D56"/>
<path d="M190.172 154.561C188.142 154.561 186.158 153.959 184.47 152.831C182.783 151.704 181.468 150.101 180.691 148.226C179.914 146.351 179.711 144.288 180.107 142.297C180.503 140.306 181.48 138.478 182.915 137.043C184.351 135.608 186.179 134.63 188.17 134.234C190.16 133.838 192.224 134.042 194.099 134.818C195.974 135.595 197.576 136.91 198.704 138.598C199.832 140.285 200.433 142.269 200.433 144.299C200.433 147.02 199.352 149.631 197.428 151.555C195.503 153.48 192.893 154.561 190.172 154.561V154.561Z" fill="#454545"/>
<path d="M194.221 143.287H191.184V140.25C191.184 139.981 191.077 139.724 190.887 139.534C190.698 139.344 190.44 139.238 190.172 139.238C189.903 139.238 189.646 139.344 189.456 139.534C189.266 139.724 189.159 139.981 189.159 140.25V143.287H186.123C185.854 143.287 185.597 143.393 185.407 143.583C185.217 143.773 185.11 144.03 185.11 144.299C185.11 144.567 185.217 144.825 185.407 145.015C185.597 145.204 185.854 145.311 186.123 145.311H189.159V148.348C189.159 148.616 189.266 148.874 189.456 149.064C189.646 149.254 189.903 149.36 190.172 149.36C190.44 149.36 190.698 149.254 190.887 149.064C191.077 148.874 191.184 148.616 191.184 148.348V145.311H194.221C194.489 145.311 194.747 145.204 194.936 145.015C195.126 144.825 195.233 144.567 195.233 144.299C195.233 144.03 195.126 143.773 194.936 143.583C194.747 143.393 194.489 143.287 194.221 143.287V143.287Z" fill="white"/>
<path d="M48.4052 69.1941C47.4348 69.1941 46.4861 68.9063 45.6792 68.3672C44.8723 67.828 44.2434 67.0617 43.872 66.1651C43.5006 65.2685 43.4035 64.2819 43.5928 63.3301C43.7821 62.3783 44.2494 61.504 44.9357 60.8178C45.6219 60.1315 46.4962 59.6642 47.448 59.4749C48.3998 59.2856 49.3864 59.3827 50.283 59.7541C51.1796 60.1255 51.9459 60.7544 52.4851 61.5613C53.0242 62.3682 53.312 63.3169 53.312 64.2874C53.312 65.5887 52.795 66.8368 51.8748 67.7569C50.9546 68.6771 49.7066 69.1941 48.4052 69.1941Z" fill="#E6E6E6"/>
<path d="M50.3413 63.8033H46.4692C46.3408 63.8033 46.2177 63.8543 46.1269 63.9451C46.0361 64.0359 45.9851 64.159 45.9851 64.2874C45.9851 64.4157 46.0361 64.5388 46.1269 64.6296C46.2177 64.7204 46.3408 64.7714 46.4692 64.7714H50.3413C50.4697 64.7714 50.5928 64.7204 50.6836 64.6296C50.7743 64.5388 50.8253 64.4157 50.8253 64.2874C50.8253 64.159 50.7743 64.0359 50.6836 63.9451C50.5928 63.8543 50.4697 63.8033 50.3413 63.8033H50.3413Z" fill="white"/>
<path d="M48.4052 125.673C47.4348 125.673 46.4861 125.385 45.6792 124.846C44.8723 124.307 44.2434 123.54 43.872 122.644C43.5006 121.747 43.4035 120.761 43.5928 119.809C43.7821 118.857 44.2494 117.983 44.9357 117.297C45.6219 116.61 46.4962 116.143 47.448 115.954C48.3998 115.764 49.3864 115.862 50.283 116.233C51.1796 116.604 51.9459 117.233 52.4851 118.04C53.0242 118.847 53.312 119.796 53.312 120.766C53.312 122.067 52.795 123.316 51.8748 124.236C50.9546 125.156 49.7066 125.673 48.4052 125.673V125.673Z" fill="#E6E6E6"/>
<path d="M50.3413 120.282H46.4692C46.3408 120.282 46.2177 120.333 46.1269 120.424C46.0361 120.515 45.9851 120.638 45.9851 120.766C45.9851 120.894 46.0361 121.018 46.1269 121.108C46.2177 121.199 46.3408 121.25 46.4692 121.25H50.3413C50.4697 121.25 50.5928 121.199 50.6836 121.108C50.7743 121.018 50.8253 120.894 50.8253 120.766C50.8253 120.638 50.7743 120.515 50.6836 120.424C50.5928 120.333 50.4697 120.282 50.3413 120.282H50.3413Z" fill="white"/>
<path d="M48.4053 182.151C47.4348 182.151 46.4861 181.864 45.6792 181.325C44.8723 180.785 44.2434 180.019 43.872 179.122C43.5006 178.226 43.4035 177.239 43.5928 176.287C43.7821 175.336 44.2495 174.461 44.9357 173.775C45.6219 173.089 46.4962 172.622 47.448 172.432C48.3998 172.243 49.3864 172.34 50.283 172.712C51.1796 173.083 51.9459 173.712 52.4851 174.519C53.0242 175.326 53.312 176.274 53.312 177.245C53.312 178.546 52.795 179.794 51.8748 180.714C50.9546 181.634 49.7066 182.151 48.4053 182.151Z" fill="#E6E6E6"/>
<path d="M50.3413 176.761H46.4692C46.3408 176.761 46.2177 176.812 46.1269 176.903C46.0361 176.993 45.9851 177.116 45.9851 177.245C45.9851 177.373 46.0361 177.496 46.1269 177.587C46.2177 177.678 46.3408 177.729 46.4692 177.729H50.3413C50.4049 177.729 50.4678 177.716 50.5265 177.692C50.5853 177.668 50.6386 177.632 50.6836 177.587C50.7285 177.542 50.7642 177.489 50.7885 177.43C50.8128 177.371 50.8253 177.308 50.8253 177.245C50.8253 177.181 50.8128 177.118 50.7885 177.06C50.7642 177.001 50.7285 176.947 50.6836 176.903C50.6386 176.858 50.5853 176.822 50.5265 176.798C50.4678 176.773 50.4049 176.761 50.3413 176.761H50.3413Z" fill="white"/>
</g>
<defs>
<clipPath id="clip0_2963_424726">
<rect width="336.422" height="236" fill="white" transform="translate(0.789124 0.5)"/>
</clipPath>
</defs>
</svg>
